<?xml version="1.0" encoding="utf-8"?>
<!-- Generator: Adobe Illustrator 21.1.0, SVG Export Plug-In . SVG Version: 6.00 Build 0)  -->
<svg version="1.1" id="Слой_1" xmlns="http://www.w3.org/2000/svg" xmlns:xlink="http://www.w3.org/1999/xlink" x="0px" y="0px"
	 viewBox="0 0 70.7 67.7" style="enable-background:new 0 0 70.7 67.7;" xml:space="preserve">
<style type="text/css">
	.st0{fill-rule:evenodd;clip-rule:evenodd;fill:#FFFFFF;}
</style>
<g>
	<path class="st0" d="M35.4,0L35.4,0C37.9,0,40,2.1,40,4.7v17.3c0,2.6-2.1,4.7-4.7,4.7l0,0c-2.6,0-4.7-2.1-4.7-4.7V4.7
		C30.7,2.1,32.8,0,35.4,0L35.4,0z"/>
	<path class="st0" d="M0.2,25.5L0.2,25.5c0.8-2.4,3.4-3.8,5.9-3l16.4,5.3c2.4,0.8,3.8,3.4,3,5.9l0,0c-0.8,2.4-3.4,3.8-5.9,3
		L3.2,31.4C0.8,30.6-0.6,28,0.2,25.5L0.2,25.5z"/>
	<path class="st0" d="M13.6,66.8L13.6,66.8c-2.1-1.5-2.5-4.4-1-6.5l10.2-14c1.5-2.1,4.4-2.5,6.5-1l0,0c2.1,1.5,2.5,4.4,1,6.5
		l-10.2,14C18.6,67.9,15.7,68.3,13.6,66.8L13.6,66.8z"/>
	<path class="st0" d="M57.1,66.8L57.1,66.8c-2.1,1.5-5,1-6.5-1l-10.2-14c-1.5-2.1-1-5,1-6.5l0,0c2.1-1.5,5-1,6.5,1l10.2,14
		C59.6,62.4,59.1,65.3,57.1,66.8L57.1,66.8z"/>
	<path class="st0" d="M70.5,25.5L70.5,25.5c0.8,2.4-0.6,5.1-3,5.9L51,36.7c-2.4,0.8-5.1-0.6-5.9-3l0,0c-0.8-2.4,0.6-5.1,3-5.9
		l16.4-5.3C67.1,21.7,69.7,23.1,70.5,25.5L70.5,25.5z"/>
</g>
</svg>
