<?xml version="1.0" encoding="utf-8"?>
<!-- Generator: Adobe Illustrator 21.1.0, SVG Export Plug-In . SVG Version: 6.00 Build 0)  -->
<svg version="1.1" id="Layer_1" xmlns="http://www.w3.org/2000/svg" xmlns:xlink="http://www.w3.org/1999/xlink" x="0px" y="0px"
	 viewBox="0 0 631.9 666.4" style="enable-background:new 0 0 631.9 666.4;" xml:space="preserve">
<style type="text/css">
	.st0{fill:#665CAC;}
	.st1{fill:none;stroke:#665CAC;stroke-width:16.8562;stroke-linecap:round;stroke-linejoin:round;}
</style>
<g>
	<path class="st0" d="M560.6,65C544,49.8,477.1,1.2,328.1,0.5c0,0-175.8-10.6-261.5,68C18.9,116.2,2.1,186,0.4,272.6
		c-1.8,86.6-4.1,248.7,152.3,292.7h0.1l-0.1,67.1c0,0-1,27.2,16.9,32.7c21.6,6.7,34.3-13.9,55-36.2c11.3-12.2,27-30.2,38.8-43.9
		c106.9,9,189.2-11.6,198.5-14.6c21.6-7,143.8-22.7,163.6-184.8C646,218.5,615.5,112.7,560.6,65z M578.7,373.6
		c-16.8,135.4-115.9,144-134.1,149.8c-7.8,2.5-80,20.5-170.8,14.5c0,0-67.7,81.6-88.8,102.9c-3.3,3.3-7.2,4.7-9.8,4
		c-3.6-0.9-4.6-5.2-4.6-11.5c0.1-9,0.6-111.5,0.6-111.5c-0.1,0-0.1,0,0,0C39,485.1,46.7,347,48.2,274.7s15.1-131.5,55.4-171.3
		c72.5-65.6,221.8-55.8,221.8-55.8c126.1,0.6,186.5,38.5,200.5,51.2C572.3,138.7,596,234,578.7,373.6z"/>
	<path class="st1" d="M339,216.8"/>
	<path class="st1" d="M389.4,268.9"/>
	<path class="st1" d="M326.1,171.6"/>
	<path class="st1" d="M405.2,206.2"/>
	<path class="st1" d="M432.6,283.4"/>
	<path class="st1" d="M311.3,127.8"/>
	<path class="st1" d="M429,174.4"/>
	<path class="st1" d="M476.9,300.7"/>
	<path class="st0" d="M340.7,381.8c0,0,11.9,1,18.2-6.9l12.4-15.6c6-7.8,20.5-12.7,34.7-4.8c7.9,4.5,22.1,13.2,30.9,19.7
		c9.4,6.9,28.7,23,28.7,23c9.2,7.7,11.3,19.1,5.1,31.1c0,0.1-0.1,0.2-0.1,0.2c-6.4,11.3-15,22-25.9,31.9c-0.1,0.1-0.1,0.1-0.2,0.2
		c-8.9,7.4-17.7,11.7-26.3,12.7c-1,0.2-2.3,0.3-3.8,0.2c-3.8,0-7.5-0.5-11.2-1.7l-0.3-0.4c-13.3-3.7-35.4-13.1-72.3-33.4
		c-24-13.2-43.9-26.7-60.7-40.1c-8.9-7-18-15-27.3-24.2c-0.3-0.3-0.6-0.6-0.9-0.9c-0.3-0.3-0.6-0.6-0.9-0.9l0,0l0,0
		c-0.3-0.3-0.6-0.6-0.9-0.9c-0.3-0.3-0.6-0.6-0.9-0.9c-9.2-9.3-17.2-18.4-24.2-27.3c-13.4-16.8-26.9-36.8-40.1-60.7
		c-20.3-36.9-29.7-59-33.4-72.3l-0.4-0.3c-1.2-3.7-1.8-7.4-1.7-11.2c-0.1-1.5,0-2.8,0.2-3.8c1-8.6,5.3-17.4,12.7-26.3
		c0.1-0.1,0.1-0.1,0.2-0.2c9.9-10.9,20.5-19.5,31.9-25.9c0.1,0,0.2-0.1,0.2-0.1c12-6.2,23.4-4.1,31.1,5.1c0.1,0.1,16.1,19.3,23,28.7
		c6.5,8.9,15.3,23,19.7,30.9c7.9,14.2,3,28.7-4.8,34.7l-15.6,12.4c-7.9,6.4-6.9,18.2-6.9,18.2S254.1,359.7,340.7,381.8z"/>
</g>
</svg>
