<?xml version="1.0" encoding="utf-8"?>
<!-- Generator: Adobe Illustrator 21.1.0, SVG Export Plug-In . SVG Version: 6.00 Build 0)  -->
<svg version="1.1" id="圖層_1" xmlns="http://www.w3.org/2000/svg" xmlns:xlink="http://www.w3.org/1999/xlink" x="0px" y="0px"
	 viewBox="0 0 337 337" style="enable-background:new 0 0 337 337;" xml:space="preserve">
<style type="text/css">
	.st0{fill:#F91600;}
</style>
<path class="st0" d="M241.5,16.6c-31,4.4-55,33.3-55.6,68.5c42.9,7.9,75.3,36.7,75.3,88.1c0,49.6-41.2,89.7-92.7,89.7
	C117.3,263,75.8,218,75.8,159.7c0-80.4,71.4-147.1,161.7-145C216.4,5.3,193.1,0,168.5,0C75.5,0,0,75.4,0,168.5S75.5,337,168.5,337
	S337,261.6,337,168.5C337,101.6,298,43.8,241.5,16.6z"/>
</svg>
